%TF.GenerationSoftware,KiCad,Pcbnew,7.0.10*%
%TF.CreationDate,2025-06-10T16:39:54+09:00*%
%TF.ProjectId,Relay_Switch,52656c61-795f-4537-9769-7463682e6b69,rev?*%
%TF.SameCoordinates,Original*%
%TF.FileFunction,Drillmap*%
%TF.FilePolarity,Positive*%
%FSLAX45Y45*%
G04 Gerber Fmt 4.5, Leading zero omitted, Abs format (unit mm)*
G04 Created by KiCad (PCBNEW 7.0.10) date 2025-06-10 16:39:54*
%MOMM*%
%LPD*%
G01*
G04 APERTURE LIST*
%ADD10C,0.100000*%
%ADD11C,0.200000*%
G04 APERTURE END LIST*
D10*
X11684000Y-9398000D02*
X18796000Y-9398000D01*
X18796000Y-13208000D01*
X11684000Y-13208000D01*
X11684000Y-9398000D01*
D11*
X11939777Y-13524484D02*
X11939777Y-13324484D01*
X11939777Y-13324484D02*
X11987396Y-13324484D01*
X11987396Y-13324484D02*
X12015967Y-13334008D01*
X12015967Y-13334008D02*
X12035015Y-13353055D01*
X12035015Y-13353055D02*
X12044539Y-13372103D01*
X12044539Y-13372103D02*
X12054062Y-13410198D01*
X12054062Y-13410198D02*
X12054062Y-13438769D01*
X12054062Y-13438769D02*
X12044539Y-13476865D01*
X12044539Y-13476865D02*
X12035015Y-13495912D01*
X12035015Y-13495912D02*
X12015967Y-13514960D01*
X12015967Y-13514960D02*
X11987396Y-13524484D01*
X11987396Y-13524484D02*
X11939777Y-13524484D01*
X12139777Y-13524484D02*
X12139777Y-13391150D01*
X12139777Y-13429246D02*
X12149301Y-13410198D01*
X12149301Y-13410198D02*
X12158824Y-13400674D01*
X12158824Y-13400674D02*
X12177872Y-13391150D01*
X12177872Y-13391150D02*
X12196920Y-13391150D01*
X12263586Y-13524484D02*
X12263586Y-13391150D01*
X12263586Y-13324484D02*
X12254062Y-13334008D01*
X12254062Y-13334008D02*
X12263586Y-13343531D01*
X12263586Y-13343531D02*
X12273110Y-13334008D01*
X12273110Y-13334008D02*
X12263586Y-13324484D01*
X12263586Y-13324484D02*
X12263586Y-13343531D01*
X12387396Y-13524484D02*
X12368348Y-13514960D01*
X12368348Y-13514960D02*
X12358824Y-13495912D01*
X12358824Y-13495912D02*
X12358824Y-13324484D01*
X12492158Y-13524484D02*
X12473110Y-13514960D01*
X12473110Y-13514960D02*
X12463586Y-13495912D01*
X12463586Y-13495912D02*
X12463586Y-13324484D01*
X12720729Y-13524484D02*
X12720729Y-13324484D01*
X12720729Y-13324484D02*
X12787396Y-13467341D01*
X12787396Y-13467341D02*
X12854062Y-13324484D01*
X12854062Y-13324484D02*
X12854062Y-13524484D01*
X13035015Y-13524484D02*
X13035015Y-13419722D01*
X13035015Y-13419722D02*
X13025491Y-13400674D01*
X13025491Y-13400674D02*
X13006443Y-13391150D01*
X13006443Y-13391150D02*
X12968348Y-13391150D01*
X12968348Y-13391150D02*
X12949301Y-13400674D01*
X13035015Y-13514960D02*
X13015967Y-13524484D01*
X13015967Y-13524484D02*
X12968348Y-13524484D01*
X12968348Y-13524484D02*
X12949301Y-13514960D01*
X12949301Y-13514960D02*
X12939777Y-13495912D01*
X12939777Y-13495912D02*
X12939777Y-13476865D01*
X12939777Y-13476865D02*
X12949301Y-13457817D01*
X12949301Y-13457817D02*
X12968348Y-13448293D01*
X12968348Y-13448293D02*
X13015967Y-13448293D01*
X13015967Y-13448293D02*
X13035015Y-13438769D01*
X13130253Y-13391150D02*
X13130253Y-13591150D01*
X13130253Y-13400674D02*
X13149301Y-13391150D01*
X13149301Y-13391150D02*
X13187396Y-13391150D01*
X13187396Y-13391150D02*
X13206443Y-13400674D01*
X13206443Y-13400674D02*
X13215967Y-13410198D01*
X13215967Y-13410198D02*
X13225491Y-13429246D01*
X13225491Y-13429246D02*
X13225491Y-13486388D01*
X13225491Y-13486388D02*
X13215967Y-13505436D01*
X13215967Y-13505436D02*
X13206443Y-13514960D01*
X13206443Y-13514960D02*
X13187396Y-13524484D01*
X13187396Y-13524484D02*
X13149301Y-13524484D01*
X13149301Y-13524484D02*
X13130253Y-13514960D01*
X13311205Y-13505436D02*
X13320729Y-13514960D01*
X13320729Y-13514960D02*
X13311205Y-13524484D01*
X13311205Y-13524484D02*
X13301682Y-13514960D01*
X13301682Y-13514960D02*
X13311205Y-13505436D01*
X13311205Y-13505436D02*
X13311205Y-13524484D01*
X13311205Y-13400674D02*
X13320729Y-13410198D01*
X13320729Y-13410198D02*
X13311205Y-13419722D01*
X13311205Y-13419722D02*
X13301682Y-13410198D01*
X13301682Y-13410198D02*
X13311205Y-13400674D01*
X13311205Y-13400674D02*
X13311205Y-13419722D01*
M02*
