%TF.GenerationSoftware,KiCad,Pcbnew,7.0.10*%
%TF.CreationDate,2025-06-10T16:40:00+09:00*%
%TF.ProjectId,Relay_Switch,52656c61-795f-4537-9769-7463682e6b69,rev?*%
%TF.SameCoordinates,Original*%
%TF.FileFunction,Legend,Top*%
%TF.FilePolarity,Positive*%
%FSLAX46Y46*%
G04 Gerber Fmt 4.6, Leading zero omitted, Abs format (unit mm)*
G04 Created by KiCad (PCBNEW 7.0.10) date 2025-06-10 16:40:00*
%MOMM*%
%LPD*%
G01*
G04 APERTURE LIST*
%ADD10C,0.150000*%
%ADD11C,0.100000*%
%ADD12C,0.120000*%
G04 APERTURE END LIST*
D10*
X137064761Y-113830057D02*
X136969523Y-113782438D01*
X136969523Y-113782438D02*
X136874285Y-113687200D01*
X136874285Y-113687200D02*
X136731428Y-113544342D01*
X136731428Y-113544342D02*
X136636190Y-113496723D01*
X136636190Y-113496723D02*
X136540952Y-113496723D01*
X136588571Y-113734819D02*
X136493333Y-113687200D01*
X136493333Y-113687200D02*
X136398095Y-113591961D01*
X136398095Y-113591961D02*
X136350476Y-113401485D01*
X136350476Y-113401485D02*
X136350476Y-113068152D01*
X136350476Y-113068152D02*
X136398095Y-112877676D01*
X136398095Y-112877676D02*
X136493333Y-112782438D01*
X136493333Y-112782438D02*
X136588571Y-112734819D01*
X136588571Y-112734819D02*
X136779047Y-112734819D01*
X136779047Y-112734819D02*
X136874285Y-112782438D01*
X136874285Y-112782438D02*
X136969523Y-112877676D01*
X136969523Y-112877676D02*
X137017142Y-113068152D01*
X137017142Y-113068152D02*
X137017142Y-113401485D01*
X137017142Y-113401485D02*
X136969523Y-113591961D01*
X136969523Y-113591961D02*
X136874285Y-113687200D01*
X136874285Y-113687200D02*
X136779047Y-113734819D01*
X136779047Y-113734819D02*
X136588571Y-113734819D01*
X137969523Y-113734819D02*
X137398095Y-113734819D01*
X137683809Y-113734819D02*
X137683809Y-112734819D01*
X137683809Y-112734819D02*
X137588571Y-112877676D01*
X137588571Y-112877676D02*
X137493333Y-112972914D01*
X137493333Y-112972914D02*
X137398095Y-113020533D01*
X159906905Y-99174819D02*
X159906905Y-98174819D01*
X160478333Y-99174819D02*
X160049762Y-98603390D01*
X160478333Y-98174819D02*
X159906905Y-98746247D01*
X161430714Y-99174819D02*
X160859286Y-99174819D01*
X161145000Y-99174819D02*
X161145000Y-98174819D01*
X161145000Y-98174819D02*
X161049762Y-98317676D01*
X161049762Y-98317676D02*
X160954524Y-98412914D01*
X160954524Y-98412914D02*
X160859286Y-98460533D01*
X131913333Y-104764819D02*
X131580000Y-104288628D01*
X131341905Y-104764819D02*
X131341905Y-103764819D01*
X131341905Y-103764819D02*
X131722857Y-103764819D01*
X131722857Y-103764819D02*
X131818095Y-103812438D01*
X131818095Y-103812438D02*
X131865714Y-103860057D01*
X131865714Y-103860057D02*
X131913333Y-103955295D01*
X131913333Y-103955295D02*
X131913333Y-104098152D01*
X131913333Y-104098152D02*
X131865714Y-104193390D01*
X131865714Y-104193390D02*
X131818095Y-104241009D01*
X131818095Y-104241009D02*
X131722857Y-104288628D01*
X131722857Y-104288628D02*
X131341905Y-104288628D01*
X132865714Y-104764819D02*
X132294286Y-104764819D01*
X132580000Y-104764819D02*
X132580000Y-103764819D01*
X132580000Y-103764819D02*
X132484762Y-103907676D01*
X132484762Y-103907676D02*
X132389524Y-104002914D01*
X132389524Y-104002914D02*
X132294286Y-104050533D01*
X145164819Y-107418094D02*
X144164819Y-107418094D01*
X144164819Y-107418094D02*
X144164819Y-107179999D01*
X144164819Y-107179999D02*
X144212438Y-107037142D01*
X144212438Y-107037142D02*
X144307676Y-106941904D01*
X144307676Y-106941904D02*
X144402914Y-106894285D01*
X144402914Y-106894285D02*
X144593390Y-106846666D01*
X144593390Y-106846666D02*
X144736247Y-106846666D01*
X144736247Y-106846666D02*
X144926723Y-106894285D01*
X144926723Y-106894285D02*
X145021961Y-106941904D01*
X145021961Y-106941904D02*
X145117200Y-107037142D01*
X145117200Y-107037142D02*
X145164819Y-107179999D01*
X145164819Y-107179999D02*
X145164819Y-107418094D01*
X144260057Y-106465713D02*
X144212438Y-106418094D01*
X144212438Y-106418094D02*
X144164819Y-106322856D01*
X144164819Y-106322856D02*
X144164819Y-106084761D01*
X144164819Y-106084761D02*
X144212438Y-105989523D01*
X144212438Y-105989523D02*
X144260057Y-105941904D01*
X144260057Y-105941904D02*
X144355295Y-105894285D01*
X144355295Y-105894285D02*
X144450533Y-105894285D01*
X144450533Y-105894285D02*
X144593390Y-105941904D01*
X144593390Y-105941904D02*
X145164819Y-106513332D01*
X145164819Y-106513332D02*
X145164819Y-105894285D01*
X144794819Y-101861904D02*
X143794819Y-101861904D01*
X144794819Y-101290476D02*
X144223390Y-101719047D01*
X143794819Y-101290476D02*
X144366247Y-101861904D01*
D11*
X193582580Y-111426666D02*
X192868295Y-111426666D01*
X192868295Y-111426666D02*
X192725438Y-111379047D01*
X192725438Y-111379047D02*
X192630200Y-111283809D01*
X192630200Y-111283809D02*
X192582580Y-111140952D01*
X192582580Y-111140952D02*
X192582580Y-111045714D01*
X193249247Y-112331428D02*
X192582580Y-112331428D01*
X193630200Y-112093333D02*
X192915914Y-111855238D01*
X192915914Y-111855238D02*
X192915914Y-112474285D01*
D10*
X129824819Y-119546666D02*
X129348628Y-119879999D01*
X129824819Y-120118094D02*
X128824819Y-120118094D01*
X128824819Y-120118094D02*
X128824819Y-119737142D01*
X128824819Y-119737142D02*
X128872438Y-119641904D01*
X128872438Y-119641904D02*
X128920057Y-119594285D01*
X128920057Y-119594285D02*
X129015295Y-119546666D01*
X129015295Y-119546666D02*
X129158152Y-119546666D01*
X129158152Y-119546666D02*
X129253390Y-119594285D01*
X129253390Y-119594285D02*
X129301009Y-119641904D01*
X129301009Y-119641904D02*
X129348628Y-119737142D01*
X129348628Y-119737142D02*
X129348628Y-120118094D01*
X128920057Y-119165713D02*
X128872438Y-119118094D01*
X128872438Y-119118094D02*
X128824819Y-119022856D01*
X128824819Y-119022856D02*
X128824819Y-118784761D01*
X128824819Y-118784761D02*
X128872438Y-118689523D01*
X128872438Y-118689523D02*
X128920057Y-118641904D01*
X128920057Y-118641904D02*
X129015295Y-118594285D01*
X129015295Y-118594285D02*
X129110533Y-118594285D01*
X129110533Y-118594285D02*
X129253390Y-118641904D01*
X129253390Y-118641904D02*
X129824819Y-119213332D01*
X129824819Y-119213332D02*
X129824819Y-118594285D01*
X119046666Y-98724819D02*
X119046666Y-99439104D01*
X119046666Y-99439104D02*
X118999047Y-99581961D01*
X118999047Y-99581961D02*
X118903809Y-99677200D01*
X118903809Y-99677200D02*
X118760952Y-99724819D01*
X118760952Y-99724819D02*
X118665714Y-99724819D01*
X120046666Y-99724819D02*
X119475238Y-99724819D01*
X119760952Y-99724819D02*
X119760952Y-98724819D01*
X119760952Y-98724819D02*
X119665714Y-98867676D01*
X119665714Y-98867676D02*
X119570476Y-98962914D01*
X119570476Y-98962914D02*
X119475238Y-99010533D01*
D12*
%TO.C,Q1*%
X135220000Y-118540000D02*
X139070000Y-118540000D01*
X137160000Y-114240001D02*
G75*
G03*
X134803601Y-115741193I0J-2599999D01*
G01*
X134837369Y-117962045D02*
G75*
G03*
X135220000Y-118540000I2322631J1122045D01*
G01*
X139516400Y-115741193D02*
G75*
G03*
X137160000Y-114240000I-2356400J-1098807D01*
G01*
X139069999Y-118539999D02*
G75*
G03*
X139462382Y-117952264I-1909999J1699999D01*
G01*
%TO.C,K1*%
X149465000Y-99910000D02*
X170605000Y-99910000D01*
X149465000Y-110910000D02*
X149465000Y-99910000D01*
X149465000Y-110910000D02*
X170605000Y-110910000D01*
X152415000Y-109220000D02*
X153685000Y-109220000D01*
X153175000Y-104390000D02*
X153685000Y-104390000D01*
X153175000Y-106170000D02*
X154195000Y-105160000D01*
X153175000Y-106930000D02*
X153175000Y-104390000D01*
X153685000Y-101600000D02*
X152415000Y-101600000D01*
X153685000Y-104390000D02*
X153685000Y-101600000D01*
X153685000Y-104390000D02*
X154195000Y-104390000D01*
X153685000Y-106930000D02*
X153175000Y-106930000D01*
X153685000Y-109220000D02*
X153685000Y-106930000D01*
X154195000Y-104390000D02*
X154195000Y-106930000D01*
X154195000Y-106930000D02*
X153685000Y-106930000D01*
X161305000Y-105410000D02*
X164480000Y-105410000D01*
X161305000Y-107950000D02*
X161305000Y-105410000D01*
X164480000Y-105410000D02*
X168290000Y-102870000D01*
X166385000Y-102870000D02*
X166385000Y-104140000D01*
X168925000Y-107950000D02*
X168925000Y-105410000D01*
X170605000Y-110910000D02*
X170605000Y-99910000D01*
X164607000Y-105410000D02*
G75*
G03*
X164353000Y-105410000I-127000J0D01*
G01*
X164353000Y-105410000D02*
G75*
G03*
X164607000Y-105410000I127000J0D01*
G01*
%TO.C,R1*%
X128040000Y-106680000D02*
X128810000Y-106680000D01*
X128810000Y-105310000D02*
X128810000Y-108050000D01*
X128810000Y-108050000D02*
X135350000Y-108050000D01*
X135350000Y-105310000D02*
X128810000Y-105310000D01*
X135350000Y-108050000D02*
X135350000Y-105310000D01*
X136120000Y-106680000D02*
X135350000Y-106680000D01*
%TO.C,D2*%
X142240000Y-102940000D02*
X142240000Y-103960000D01*
X143710000Y-103960000D02*
X140770000Y-103960000D01*
X140770000Y-103960000D02*
X140770000Y-109400000D01*
X143710000Y-104740000D02*
X140770000Y-104740000D01*
X143710000Y-104860000D02*
X140770000Y-104860000D01*
X143710000Y-104980000D02*
X140770000Y-104980000D01*
X143710000Y-109400000D02*
X143710000Y-103960000D01*
X140770000Y-109400000D02*
X143710000Y-109400000D01*
X142240000Y-110420000D02*
X142240000Y-109400000D01*
D11*
%TO.C,J4*%
X185420000Y-96520000D02*
X175260000Y-96520000D01*
X175260000Y-96520000D02*
X175260000Y-129540000D01*
X175260000Y-129540000D02*
X185420000Y-129540000D01*
X185420000Y-129540000D02*
X185420000Y-96520000D01*
D12*
%TO.C,R2*%
X127000000Y-115340000D02*
X127000000Y-116110000D01*
X128370000Y-116110000D02*
X125630000Y-116110000D01*
X125630000Y-116110000D02*
X125630000Y-122650000D01*
X128370000Y-122650000D02*
X128370000Y-116110000D01*
X125630000Y-122650000D02*
X128370000Y-122650000D01*
X127000000Y-123420000D02*
X127000000Y-122650000D01*
%TO.C,J1*%
X118050000Y-100270000D02*
X119380000Y-100270000D01*
X118050000Y-101600000D02*
X118050000Y-100270000D01*
X118050000Y-102870000D02*
X118050000Y-108010000D01*
X118050000Y-102870000D02*
X120710000Y-102870000D01*
X118050000Y-108010000D02*
X120710000Y-108010000D01*
X120710000Y-102870000D02*
X120710000Y-108010000D01*
%TD*%
M02*
